<?xml version="1.0"?>
<svg width="64" height="64" xmlns="http://www.w3.org/2000/svg" xmlns:svg="http://www.w3.org/2000/svg" class="ccsvg ccsvg--solid ccsvg--ps4">

 <g class="layer">
  <title>Layer 1</title>
  <path class="ccsvg__primary" d="m40.8,25.7c0.6,0 1.2,-0.5 1.2,-1.2l0,-10c0,-0.3 -0.2,-0.5 -0.5,-0.5l-19,0c-0.3,0 -0.5,0.2 -0.5,0.5l0,10c0,0.6 0.5,1.2 1.2,1.2l17.6,0zm21.3,2.7s-0.4,-1.8 -1.4,-5.5s-1.7,-5 -2.1,-5.5s-1.6,-2.6 -1.6,-2.6c-0.3,-0.5 -0.4,-1 -1.2,-1.2c0,-0.1 0.1,-0.5 -0.1,-0.6c-1.3,-0.7 -2.8,-1.1 -4.2,-1.1c-1.2,0 -2.3,0.2 -3.4,0.6c-0.4,0.1 -0.2,0.7 -0.2,1c-0.7,-0.1 -1.1,0.6 -1.7,0.6l-2.6,0c-0.3,0 -0.5,0.2 -0.5,0.5l0,9.9c0,1.2 -1,2.1 -2.1,2.1l-17.7,0c-1.2,0 -2.1,-1 -2.1,-2.1l0,-9.9c0,-0.3 -0.2,-0.5 -0.5,-0.5l-2.6,0c-0.6,0 -1,-0.7 -1.7,-0.6c0,-0.3 0.1,-0.9 -0.2,-1c-1.1,-0.4 -2.3,-0.6 -3.4,-0.6c-1.5,0 -2.9,0.4 -4.2,1.1c-0.2,0.1 -0.1,0.5 -0.1,0.6c-0.9,0.2 -1,0.7 -1.2,1.2c0,0 -1.2,2.1 -1.6,2.6s-1,1.7 -2.1,5.5s-1.4,5.5 -1.4,5.5c-1.2,4 -5,20.9 1.8,23.2c2.9,1 6,0.6 8.2,-3.1c1.7,-3.1 3,-6.4 4.1,-9.8c0.1,-0.3 0.3,-0.5 0.5,-0.6c0.2,-0.2 0.6,-0.4 0.9,-0.2c2.5,1.9 5.9,1.9 8.4,-0.1c0.2,-0.2 0.5,-0.3 0.8,-0.3l10.4,0c0.3,0 0.6,0.1 0.8,0.3c2.4,2 5.9,2 8.3,0.1c0.2,-0.1 0.4,-0.1 0.6,0c0.4,0.2 0.6,0.5 0.8,0.8c1.1,3.4 2.4,6.7 4.1,9.8c2.2,3.7 5.4,4.1 8.2,3.1c6.7,-2.3 2.9,-19.2 2,-23.2zm-52.1,-8.7c0,-0.5 0.8,-0.9 1.9,-0.9s1.9,0.4 1.9,0.9l0,2c0,0.1 0,0.1 -0.1,0.2l-0.1,0.1l-1.5,1.6c-0.1,0.1 -0.3,0.1 -0.4,0l-1.5,-1.6l-0.1,-0.1c0,-0.1 -0.1,-0.1 -0.1,-0.2l0,-2zm-0.5,6.3c-0.1,0 -0.1,0.1 -0.2,0.1l-2,0c-0.5,0 -0.9,-0.8 -0.9,-1.9s0.4,-1.9 0.9,-1.9l2,0c0.1,0 0.1,0 0.2,0.1l0.1,0l1.6,1.5c0.1,0.1 0.1,0.3 0,0.4l-1.7,1.7zm4.3,2.7c0,0.5 -0.8,0.9 -1.9,0.9s-1.9,-0.4 -1.9,-0.9l0,-2c0,-0.1 0,-0.1 0.1,-0.2l0.1,-0.1l1.5,-1.6c0.1,-0.1 0.3,-0.1 0.4,0l1.5,1.6l0.1,0.1s0.1,0.1 0.1,0.2l0,2zm2.6,-2.6l-2,0c-0.1,0 -0.1,0 -0.2,-0.1l-0.1,0l-1.6,-1.5c-0.1,-0.1 -0.1,-0.3 0,-0.4l1.6,-1.5l0.1,0c0.1,0 0.1,-0.1 0.2,-0.1l2,0c0.5,0 0.9,0.8 0.9,1.9s-0.4,1.7 -0.9,1.7zm1.3,-9c0,-0.6 0.4,-1.1 1,-1.2c0.6,0 1.1,0.4 1.2,1l0,1.5c0,0.6 -0.4,1.1 -1,1.2s-1.1,-0.4 -1.2,-1l0,-1.5zm7.9,16.5c-0.3,2.2 -2.4,3.6 -4.5,3.3c-2.2,-0.3 -3.6,-2.4 -3.3,-4.5c0.3,-1.7 1.6,-3 3.3,-3.3c2.2,-0.3 4.2,1.1 4.5,3.3l0,1.2zm6.4,0.4c-1,0 -1.7,-0.8 -1.7,-1.7c0,-1 0.8,-1.7 1.7,-1.7c1,0 1.7,0.8 1.7,1.7c0,0.9 -0.7,1.7 -1.7,1.7zm12.1,-16.9c0,-0.6 0.4,-1.1 1,-1.1s1.1,0.4 1.1,1l0,1.5c0,0.6 -0.4,1.1 -1,1.2c-0.6,0 -1.1,-0.4 -1.2,-1l0,-0.1l0.1,-1.5zm2.2,16.5c-0.3,2.2 -2.4,3.6 -4.5,3.3c-2.2,-0.3 -3.6,-2.4 -3.3,-4.5c0.3,-1.7 1.6,-3 3.3,-3.3c2.2,-0.3 4.2,1.1 4.5,3.3l0,1.2zm3.3,-8.9c-0.2,0.8 -0.8,1.4 -1.6,1.6c-1.2,0.3 -2.4,-0.4 -2.7,-1.6c-0.3,-1.2 0.4,-2.4 1.6,-2.7c1.2,-0.3 2.4,0.4 2.7,1.6c0.1,0.4 0.1,0.8 0,1.1zm0.3,-5.8c0.3,-1.2 1.5,-1.9 2.7,-1.6s1.9,1.5 1.6,2.7c-0.2,0.8 -0.8,1.4 -1.6,1.6c-1.2,0.3 -2.4,-0.4 -2.7,-1.5c-0.1,-0.4 -0.1,-0.9 0,-1.2zm4.4,10.6c-0.2,0.8 -0.8,1.4 -1.6,1.6c-1.2,0.3 -2.4,-0.4 -2.7,-1.6c-0.3,-1.2 0.4,-2.4 1.6,-2.7c1.2,-0.3 2.4,0.4 2.7,1.6c0.1,0.4 0.1,0.7 0,1.1zm4.8,-4.8c-0.2,0.8 -0.8,1.4 -1.6,1.6c-1.2,0.3 -2.4,-0.4 -2.7,-1.6s0.4,-2.4 1.6,-2.7c1.2,-0.3 2.4,0.4 2.7,1.6c0.1,0.4 0.1,0.8 0,1.1z" fill="#ffffff" id="svg_1"/>
  <rect fill="#ffffff" height="24" id="svg_2" stroke="null" stroke-dasharray="null" stroke-linecap="null" stroke-linejoin="null" stroke-opacity="null" stroke-width="null" width="44" x="11.25" y="13.83"/>
  <rect fill="#ffffff" height="8" id="svg_3" stroke="null" stroke-dasharray="null" stroke-linecap="null" stroke-linejoin="null" stroke-opacity="null" stroke-width="null" width="13" x="47.25" y="21.83"/>
  <rect fill="#ffffff" height="12" id="svg_4" stroke="null" stroke-dasharray="null" stroke-linecap="null" stroke-linejoin="null" stroke-opacity="null" stroke-width="null" width="12" x="6.25" y="17.83"/>
 </g>
</svg>