<?xml version="1.0" encoding="UTF-8"?>
<!DOCTYPE svg PUBLIC "-//W3C//DTD SVG 1.1//EN" "http://www.w3.org/Graphics/SVG/1.1/DTD/svg11.dtd">
<svg xmlns="http://www.w3.org/2000/svg" version="1.1" width="122px" height="70px" style="shape-rendering:geometricPrecision; text-rendering:geometricPrecision; image-rendering:optimizeQuality; fill-rule:evenodd; clip-rule:evenodd" xmlns:xlink="http://www.w3.org/1999/xlink">
<g><path style="opacity:0.004" fill="#dce0e0" d="M 23.5,15.5 C 24.8333,16.1667 24.8333,16.1667 23.5,15.5 Z"/></g>
<g><path style="opacity:0.004" fill="#d7dbdb" d="M 59.5,15.5 C 60.8333,16.1667 60.8333,16.1667 59.5,15.5 Z"/></g>
<g><path style="opacity:0.004" fill="#ebf0f0" d="M 32.5,17.5 C 31.8333,16.1667 31.8333,16.1667 32.5,17.5 Z"/></g>
<g><path style="opacity:0.004" fill="#d8dcdc" d="M 47.5,16.5 C 48.8333,17.1667 48.8333,17.1667 47.5,16.5 Z"/></g>
<g><path style="opacity:0.007" fill="#ecf0f1" d="M 32.5,17.5 C 35.99,19.3364 35.3233,19.8364 30.5,19C 31.4158,18.7216 32.0825,18.2216 32.5,17.5 Z"/></g>
<g><path style="opacity:0.004" fill="#ecf0f0" d="M 37.5,18.5 C 38.8333,19.1667 38.8333,19.1667 37.5,18.5 Z"/></g>
<g><path style="opacity:0.006" fill="#e9ecee" d="M 54.5,19.5 C 56.2884,18.3775 58.2884,18.2109 60.5,19C 58.5273,19.4955 56.5273,19.6621 54.5,19.5 Z"/></g>
<g><path style="opacity:0.004" fill="#f5f8f8" d="M 37.5,19.5 C 36.8333,20.1667 36.8333,20.1667 37.5,19.5 Z"/></g>
<g><path style="opacity:0.004" fill="#eff4f4" d="M 52.5,19.5 C 53.8333,20.1667 53.8333,20.1667 52.5,19.5 Z"/></g>
<g><path style="opacity:0.004" fill="#f6fafa" d="M 61.5,20.5 C 62.8333,21.1667 62.8333,21.1667 61.5,20.5 Z"/></g>
<g><path style="opacity:0.959" fill="#fbfdfe" d="M 36.5,20.5 C 37.0577,21.7899 38.0577,22.6232 39.5,23C 41.3333,23.1667 43.1667,23.3333 45,23.5C 49.3493,23.2409 53.516,22.2409 57.5,20.5C 58.9245,20.6233 60.2579,20.9566 61.5,21.5C 65.3553,24.5486 67.0219,28.5486 66.5,33.5C 66.8333,38.8333 67.1667,44.1667 67.5,49.5C 66.8506,50.6063 66.5173,51.6063 66.5,52.5C 64.5914,51.6518 62.5914,51.3184 60.5,51.5C 58.4809,49.4943 56.1475,47.8276 53.5,46.5C 54.4604,45.1877 54.2937,43.8544 53,42.5C 52.6667,43.1667 52.3333,43.8333 52,44.5C 47.1672,43.1922 42.3338,43.1922 37.5,44.5C 37.1667,43.1667 36.8333,43.1667 36.5,44.5C 35.1667,44.8333 35.1667,45.1667 36.5,45.5C 36.573,47.0269 35.9063,48.0269 34.5,48.5C 34.1667,47.1667 33.8333,47.1667 33.5,48.5C 32.8333,48.5 32.5,48.8333 32.5,49.5C 31.8333,49.5 31.5,49.8333 31.5,50.5C 28.9039,51.2653 26.2372,51.5987 23.5,51.5C 23.1667,50.8333 22.8333,50.1667 22.5,49.5C 22.505,40.4405 24.1717,31.7738 27.5,23.5C 29.8453,20.925 32.8453,19.925 36.5,20.5 Z"/></g>
<g><path style="opacity:0.004" fill="#f7f9f9" d="M 38.5,20.5 C 39.8333,21.1667 39.8333,21.1667 38.5,20.5 Z"/></g>
<g><path style="opacity:0.004" fill="#e8eded" d="M 67.5,23.5 C 68.8333,24.1667 68.8333,24.1667 67.5,23.5 Z"/></g>
<g><path style="opacity:0.004" fill="#eef2f2" d="M 24.5,24.5 C 24.5,24.8333 24.5,25.1667 24.5,25.5C 22.6469,26.6143 22.1469,25.9476 23,23.5C 23.3826,24.056 23.8826,24.3893 24.5,24.5 Z"/></g>
<g><path style="opacity:0.004" fill="#e8ecec" d="M 68.5,25.5 C 69.8333,26.1667 69.8333,26.1667 68.5,25.5 Z"/></g>
<g><path style="opacity:0.005" fill="#ecf0f1" d="M 22.5,33.5 C 21.3775,31.7116 21.2109,29.7116 22,27.5C 22.4955,29.4727 22.6621,31.4727 22.5,33.5 Z"/></g>
<g><path style="opacity:0.006" fill="#f6f8f8" d="M 68.5,33.5 C 68.1667,33.5 67.8333,33.5 67.5,33.5C 67.8333,25.5 68.1667,25.5 68.5,33.5 Z"/></g>
<g><path style="opacity:0.071" fill="#f6f8f9" d="M 24.5,24.5 C 25.209,23.596 26.209,23.2627 27.5,23.5C 24.1717,31.7738 22.505,40.4405 22.5,49.5C 21.5233,46.7131 21.19,43.7131 21.5,40.5C 22.4682,38.3926 22.8016,36.0593 22.5,33.5C 23.3705,30.997 24.0372,28.3303 24.5,25.5C 25.8333,25.1667 25.8333,24.8333 24.5,24.5 Z"/></g>
<g><path style="opacity:0.004" fill="#e0e5e5" d="M 80.5,32.5 C 80.8966,31.475 81.5632,31.3083 82.5,32C 81.9056,32.4643 81.2389,32.631 80.5,32.5 Z"/></g>
<g><path style="opacity:0.004" fill="#e1e5e6" d="M 83.5,32.5 C 86.3035,31.3622 89.3035,31.1955 92.5,32C 89.5184,32.498 86.5184,32.6646 83.5,32.5 Z"/></g>
<g><path style="opacity:0.004" fill="#dee2e4" d="M 93.5,32.5 C 97.6463,31.353 101.98,31.1864 106.5,32C 102.179,32.499 97.8461,32.6657 93.5,32.5 Z"/></g>
<g><path style="opacity:0.004" fill="#dadfdf" d="M 111.5,31.5 C 112.833,32.1667 112.833,32.1667 111.5,31.5 Z"/></g>
<g><path style="opacity:0.004" fill="#e5eaea" d="M 69.5,32.5 C 70.8333,33.1667 70.8333,33.1667 69.5,32.5 Z"/></g>
<g><path style="opacity:0.004" fill="#dbdfdf" d="M 15.5,33.5 C 16.8333,34.1667 16.8333,34.1667 15.5,33.5 Z"/></g>
<g><path style="opacity:0.005" fill="#ebeff0" d="M 21.5,40.5 C 21.1667,40.5 20.8333,40.5 20.5,40.5C 20.8333,32.5 21.1667,32.5 21.5,40.5 Z"/></g>
<g><path style="opacity:0.004" fill="#e4e9e9" d="M 77.5,34.5 C 78.8333,35.1667 78.8333,35.1667 77.5,34.5 Z"/></g>
<g><path style="opacity:0.004" fill="#f3f5f5" d="M 111.5,36.5 C 111.369,35.7611 111.536,35.0944 112,34.5C 112.692,35.4368 112.525,36.1034 111.5,36.5 Z"/></g>
<g><path style="opacity:0.006" fill="#f6f8f9" d="M 68.5,33.5 C 68.8333,33.5 69.1667,33.5 69.5,33.5C 69.1667,41.5 68.8333,41.5 68.5,33.5 Z"/></g>
<g><path style="opacity:0.004" fill="#e4e9e9" d="M 70.5,35.5 C 71.8333,36.1667 71.8333,36.1667 70.5,35.5 Z"/></g>
<g><path style="opacity:0.004" fill="#e3e7e8" d="M 73.5,38.5 C 73.8966,37.475 74.5632,37.3083 75.5,38C 74.9056,38.4643 74.2389,38.631 73.5,38.5 Z"/></g>
<g><path style="opacity:0.004" fill="#f6f7f8" d="M 111.5,38.5 C 112.643,41.9758 112.81,45.6425 112,49.5C 111.501,45.8484 111.335,42.1817 111.5,38.5 Z"/></g>
<g><path style="opacity:0.004" fill="#ecf0f0" d="M 17.5,40.5 C 18.8333,41.1667 18.8333,41.1667 17.5,40.5 Z"/></g>
<g><path style="opacity:0.004" fill="#e6eaea" d="M 17.5,41.5 C 16.8333,42.1667 16.8333,42.1667 17.5,41.5 Z"/></g>
<g><path style="opacity:0.004" fill="#eef2f3" d="M 20.5,40.5 C 20.6495,41.552 20.4828,42.552 20,43.5C 19.2599,42.2506 19.4265,41.2506 20.5,40.5 Z"/></g>
<g><path style="opacity:0.006" fill="#eef1f2" d="M 19.5,44.5 C 20.6225,46.2884 20.7891,48.2884 20,50.5C 19.5045,48.5273 19.3379,46.5273 19.5,44.5 Z"/></g>
<g><path style="opacity:0.004" fill="#f8fcfc" d="M 36.5,44.5 C 36.8333,44.5 37.1667,44.5 37.5,44.5C 37.3147,45.1701 36.9813,45.1701 36.5,44.5 Z"/></g>
<g><path style="opacity:0.004" fill="#e6ebeb" d="M 71.5,44.5 C 72.8333,45.1667 72.8333,45.1667 71.5,44.5 Z"/></g>
<g><path style="opacity:0.007" fill="#f5f8f8" d="M 66.5,33.5 C 66.8333,33.5 67.1667,33.5 67.5,33.5C 67.5775,37.8766 68.0775,42.2099 69,46.5C 69.3333,44.5 69.6667,42.5 70,40.5C 70.1981,42.3817 70.6981,44.0484 71.5,45.5C 70.9101,46.766 70.4101,48.0993 70,49.5C 69.6667,48.8333 69.3333,48.1667 69,47.5C 68.7216,48.4158 68.2216,49.0825 67.5,49.5C 67.1667,44.1667 66.8333,38.8333 66.5,33.5 Z"/></g>
<g><path style="opacity:0.004" fill="#e5e8e9" d="M 39.5,47.5 C 39.8966,46.475 40.5632,46.3083 41.5,47C 40.9056,47.4643 40.2389,47.631 39.5,47.5 Z"/></g>
<g><path style="opacity:0.004" fill="#e7ebeb" d="M 71.5,47.5 C 72.8333,48.1667 72.8333,48.1667 71.5,47.5 Z"/></g>
<g><path style="opacity:0.004" fill="#f9fdfc" d="M 33.5,48.5 C 33.8333,48.5 34.1667,48.5 34.5,48.5C 34.3147,49.1701 33.9813,49.1701 33.5,48.5 Z"/></g>
<g><path style="opacity:0.004" fill="#ebefef" d="M 36.5,48.5 C 37.8333,49.1667 37.8333,49.1667 36.5,48.5 Z"/></g>
<g><path style="opacity:0.004" fill="#f9fcfc" d="M 32.5,49.5 C 32.8333,49.5 33.1667,49.5 33.5,49.5C 33.3147,50.1701 32.9813,50.1701 32.5,49.5 Z"/></g>
<g><path style="opacity:0.004" fill="#fafdfc" d="M 31.5,50.5 C 31.8333,50.5 32.1667,50.5 32.5,50.5C 32.3147,51.1701 31.9813,51.1701 31.5,50.5 Z"/></g>
<g><path style="opacity:0.004" fill="#f9fcfc" d="M 23.5,51.5 C 22.8333,52.1667 22.8333,52.1667 23.5,51.5 Z"/></g>
<g><path style="opacity:0.004" fill="#f9fcfc" d="M 31.5,51.5 C 30.8333,52.1667 30.8333,52.1667 31.5,51.5 Z"/></g>
<g><path style="opacity:0.004" fill="#f5f8f9" d="M 60.5,51.5 C 61.6085,52.29 62.9419,52.79 64.5,53C 62.272,53.8201 60.272,53.4868 58.5,52C 59.0944,51.5357 59.7611,51.369 60.5,51.5 Z"/></g>
<g><path style="opacity:0.004" fill="#f2f4f5" d="M 111.5,51.5 C 112.573,52.2506 112.74,53.2506 112,54.5C 111.517,53.552 111.351,52.552 111.5,51.5 Z"/></g>
<g><path style="opacity:0.005" fill="#fafcfc" d="M 24.5,53.5 C 25.9464,52.3871 27.6131,52.2204 29.5,53C 27.8659,53.4935 26.1992,53.6602 24.5,53.5 Z"/></g>
<g><path style="opacity:0.004" fill="#e4e8e8" d="M 55.5,52.5 C 56.8333,53.1667 56.8333,53.1667 55.5,52.5 Z"/></g>
<g><path style="opacity:0.004" fill="#eef3f2" d="M 22.5,53.5 C 23.8333,54.1667 23.8333,54.1667 22.5,53.5 Z"/></g>
<g><path style="opacity:0.306" fill="#f2f5f6" d="M 111.5,36.5 C 111.5,37.1667 111.5,37.8333 111.5,38.5C 110.813,43.9003 110.146,49.4003 109.5,55C 99.8333,55.6667 90.1667,55.6667 80.5,55C 79.7734,53.6012 79.2734,52.1012 79,50.5C 78.6667,51.8333 78.3333,53.1667 78,54.5C 77.7266,52.8988 77.2266,51.3988 76.5,50C 80.2259,48.9568 79.8926,48.4568 75.5,48.5C 75.5875,45.4017 75.0875,45.0684 74,47.5C 73.3333,45.1667 73.3333,42.8333 74,40.5C 74.3333,41.1667 74.6667,41.8333 75,42.5C 75.3176,40.9391 76.1509,39.7724 77.5,39C 76.3463,38.0862 76.513,37.2529 78,36.5C 78.3333,36.8333 78.6667,37.1667 79,37.5C 79.49,36.2068 79.6567,34.8734 79.5,33.5C 89.991,33.8432 100.324,33.3432 110.5,32C 109.833,32.3333 109.167,32.6667 108.5,33C 109.814,33.985 110.814,35.1516 111.5,36.5 Z"/></g>
<g><path style="opacity:0.908" fill="#fcfefe" d="M 80.5,34.5 C 90.1667,34.5 99.8333,34.5 109.5,34.5C 109.5,40.8333 109.5,47.1667 109.5,53.5C 99.8333,53.5 90.1667,53.5 80.5,53.5C 80.5,51.5 80.5,49.5 80.5,47.5C 79.1667,47.5 77.8333,47.5 76.5,47.5C 76.5,45.1667 76.5,42.8333 76.5,40.5C 78.1992,40.6602 79.8659,40.4935 81.5,40C 80.5939,38.3005 80.2606,36.4672 80.5,34.5 Z"/></g>
<g><path style="opacity:0.076" fill="#f5f8fa" d="M 82.5,37.5 C 86.0419,37.1872 89.3752,37.5206 92.5,38.5C 91.8333,38.5 91.5,38.8333 91.5,39.5C 90.1667,40.8333 90.1667,42.1667 91.5,43.5C 91.5,44.1667 91.5,44.8333 91.5,45.5C 90.1667,46.1667 90.1667,46.8333 91.5,47.5C 91.5674,48.9587 91.2341,50.2921 90.5,51.5C 87.8333,51.5 85.1667,51.5 82.5,51.5C 82.5,46.8333 82.5,42.1667 82.5,37.5 Z"/></g>
<g><path style="opacity:0.053" fill="#f1f4f6" d="M 82.5,37.5 C 90.6499,36.5073 98.9832,36.1739 107.5,36.5C 107.666,41.8437 107.499,47.1771 107,52.5C 101.593,51.5268 96.0934,51.1934 90.5,51.5C 91.2341,50.2921 91.5674,48.9587 91.5,47.5C 91.5,46.8333 91.5,46.1667 91.5,45.5C 91.5,44.8333 91.5,44.1667 91.5,43.5C 91.5,42.1667 91.5,40.8333 91.5,39.5C 91.5,38.8333 91.8333,38.5 92.5,38.5C 89.3752,37.5206 86.0419,37.1872 82.5,37.5 Z"/></g>
<g><path style="opacity:0.923" fill="#fbfefe" d="M 100.5,38.5 C 102.144,38.2865 103.644,38.6198 105,39.5C 105.498,42.8168 105.665,46.1501 105.5,49.5C 103.833,49.5 102.167,49.5 100.5,49.5C 100.5,45.8333 100.5,42.1667 100.5,38.5 Z"/></g>
<g><path style="opacity:0.953" fill="#fcfefe" d="M 92.5,38.5 C 94.0098,39.7279 95.5098,39.7279 97,38.5C 97.6667,42.1667 97.6667,45.8333 97,49.5C 95.6667,46.8333 94.3333,46.8333 93,49.5C 92.5014,45.8484 92.3347,42.1817 92.5,38.5 Z"/></g>
<g><path style="opacity:0.928" fill="#fbfefe" d="M 84.5,49.5 C 84.5,45.8333 84.5,42.1667 84.5,38.5C 86.1667,38.5 87.8333,38.5 89.5,38.5C 89.5,42.1667 89.5,45.8333 89.5,49.5C 87.8333,49.5 86.1667,49.5 84.5,49.5 Z"/></g>
<g><path style="opacity:0.004" fill="#e2e7e7" d="M 56.5,54.5 C 57.8333,55.1667 57.8333,55.1667 56.5,54.5 Z"/></g>
<g><path style="opacity:0.004" fill="#e6e9ec" d="M 79.5,57.5 C 89.992,56.3412 100.659,56.1745 111.5,57C 100.839,57.4998 90.1719,57.6665 79.5,57.5 Z"/></g>
</svg>
